<?xml version="1.0" encoding="utf-8"?>
<!-- Generator: Adobe Illustrator 25.2.1, SVG Export Plug-In . SVG Version: 6.00 Build 0)  -->
<svg version="1.1" id="Layer_1" xmlns="http://www.w3.org/2000/svg" xmlns:xlink="http://www.w3.org/1999/xlink" x="0px" y="0px"
	 viewBox="0 0 1920 449" style="enable-background:new 0 0 1920 449;" xml:space="preserve">
<style type="text/css">
	.st0{fill:#FFFFFF;}
	.st1{fill:#008E97;}
</style>
<g>
	<g>
		<path class="st0" d="M560.2,349.9c0-41,73.5-81.5,73.5-96.2c0-15.1-68.1-1.3-68.1-25.8c0-22.3,36.1-40.1,85.5-40.1
			c53,0,90.9,9.4,90.9,45.9c0,38.3-60.1,57-60.1,77.1c0,17.8,73.9-3.1,73.9,43.2c0,33.4-58.8,51.2-105.1,51.2
			C601.6,405.1,560.2,390.9,560.2,349.9z"/>
		<path class="st0" d="M882.4,403.7c-73.9,0-113.5-29.5-113.5-95.6c0-68.1,41.5-120.8,125.6-120.8c75.8,0,108.7,36.7,108.7,103.4
			C1003.1,363.6,955.3,403.7,882.4,403.7z M891.1,261.6c-15.9,0-29,13.5-29,36.7c0,23.2,11.1,33.8,27,33.8c15,0,28-12.1,28-36.7
			C917.2,271.8,907,261.6,891.1,261.6z"/>
		<path class="st0" d="M1134.1,403.7c-73.9,0-113.5-29.5-113.5-95.6c0-68.1,41.5-120.8,125.6-120.8c75.8,0,108.7,36.7,108.7,103.4
			C1254.8,363.6,1207,403.7,1134.1,403.7z M1142.8,261.6c-15.9,0-29,13.5-29,36.7c0,23.2,11.1,33.8,27.1,33.8c15,0,28-12.1,28-36.7
			C1168.8,271.8,1158.7,261.6,1142.8,261.6z"/>
		<path class="st0" d="M1375.1,402.2c-63.8,0-89.4-18.4-92.3-37.7c-2.9-19.3-3.9-71.5-3.9-124.6c0-42,0.5-77.3,1-93.7
			c2.4-47.8,14-58.4,50.2-58.4c20.3,0,34.8,1.4,48.3,6.8v121.3c9.7-15.5,32.4-26.6,59.4-26.6c46.9,0,74.9,29.5,74.9,99
			C1512.8,354.9,1465.9,402.2,1375.1,402.2z M1398.3,262.6c-8.7,0-14.5,2.4-19.8,6.8v60.9c4.8,1,9.2,1.4,13.1,1.4
			c19.3,0,29-15.9,29-34.8C1420.5,272.3,1411.8,262.6,1398.3,262.6z"/>
		<path class="st0" d="M1601.2,402.2c-47.3,0-57-4.8-60.4-25.6c-2.9-17.4-3.9-56-3.9-103.8c0-54.1,0.5-106.8,1-126.6
			c2.4-47.8,14-58.4,50.2-58.4c20.3,0,36.7,2.4,50.2,7.2v243l26.6-1c4.4,7.7,5.3,18.8,5.3,27.5
			C1670.3,392.5,1651,402.2,1601.2,402.2z"/>
		<path class="st0" d="M1870.3,313.8l-91.3-0.5c1.4,14.5,13.5,23.2,36.2,23.2c21.2,0,41.5-4.8,58.9-10.6c14,7.2,20.3,17.9,20.3,33.3
			c0,26.6-29.9,45.9-101.9,45.9c-78.7,0-114-36.7-114-98.5c0-72.5,45.9-120.3,131.9-120.3c63.3,0,90.8,35.3,90.8,84.5
			C1901.2,301.3,1887.7,314.3,1870.3,313.8z M1824.4,271.3c0-11.1-5.3-17.9-17.4-17.9c-17.4,0-26.6,12.1-27.5,24.2h44.4
			C1823.9,275.6,1824.4,273.2,1824.4,271.3z"/>
	</g>
	<g>
		<g>
			<path class="st1" d="M150,388.6c-8.4-38.6,52.5-91.9,49.5-105.7c-3.1-14.3-42.7,2.9-47.7-20.2c-4.6-21,19.6-38.1,50.6-45.5
				c49.7-11.8,87.5-9.8,95,24.6c7.9,36.1-45,66-40.9,84.9c3.6,16.8,52.6-14.7,62.1,29c6.9,31.5-32.8,57-72.2,66.4
				C200.6,433,158.4,427.2,150,388.6z"/>
		</g>
		<path class="st1" d="M174.4,117.5c6.6,11.8,11.6,24.1,13,37.7c2.2,21.7-7.2,38.3-27.5,48.7c-19.3,9.8-38.9,7.2-54.7-7.2
			c-18.8-17.2-27.9-39-29.9-64.1c-1.5-17.9-0.6-35.8,6.7-53c1.9-4.4,4.4-8.7,7.5-12.5c6.6-8,15.4-10.6,25.3-8.2
			c13.5,3.1,23.6,11.4,32.8,20.8C158.5,90.9,167.1,103.8,174.4,117.5z"/>
		<path class="st1" d="M223.4,109.2c5.6-20.2,12.1-39.8,25.5-56.5c4-5,9-9.6,14.4-13.3c11-7.6,23-6.3,33.2,2.7
			c9.4,8.3,15.2,18.7,19.6,29.8c7.3,18.2,11.2,36.9,9.3,56.2c-1.6,16.5-6.9,31.9-18,44.8c-10.6,12.3-24.6,17.7-41.6,15.4
			c-30.4-4.1-44.3-23.5-44.8-50.5C220.9,128.2,222.6,118.7,223.4,109.2z"/>
		<path class="st1" d="M416.7,293.2c-7.9,12.1-19.4,21.3-35.4,25.9c-16,4.6-33.1-0.5-46.7-13.7c-13.9-13.4-17.9-28.4-11.8-42.6
			c6.2-14.6,18.3-24.2,31.3-33.1c9.8-6.8,20.7-12.1,33.4-14.7c7.1-1.4,14.5-1.8,22.4,0.7c6.8,2.2,11.6,6.4,14.8,12.4
			c5,9.5,5.3,18.8,4.5,27.9C427.9,269.3,423.6,281.5,416.7,293.2z"/>
		<path class="st1" d="M44.8,331.3c-9.3-7.5-19.1-19.2-24.1-35.1c-1-3.3-1.6-7-1.8-10.6c-0.6-10.1,4.4-18.1,13.9-22.7
			c9.3-4.5,18.5-5.2,27.7-4.7c16.8,0.9,32.5,5.1,46.4,13.1c9.3,5.4,16.6,12.8,18.2,25c3.1,22.9-17.5,47.8-40.1,48.4
			C70.8,345,58.3,341.5,44.8,331.3z"/>
	</g>
</g>
</svg>
