<svg width="1920" height="450" viewBox="0 0 1920 450" fill="none" xmlns="http://www.w3.org/2000/svg">
<path d="M560.21 349.92C560.21 308.94 633.69 268.41 633.69 253.72C633.69 238.58 565.55 252.38 565.55 227.89C565.55 205.62 601.63 187.8 651.06 187.8C704.06 187.8 741.92 197.16 741.92 233.68C741.92 271.99 681.8 290.69 681.8 310.73C681.8 328.54 755.73 307.6 755.73 353.93C755.73 387.33 696.95 405.15 650.63 405.15C601.63 405.14 560.21 390.89 560.21 349.92Z" fill="white"/>
<path d="M882.38 403.66C808.47 403.66 768.87 374.2 768.87 308.02C768.87 239.91 810.41 187.26 894.46 187.26C970.29 187.26 1003.14 223.97 1003.14 290.63C1003.14 363.57 955.32 403.66 882.38 403.66ZM891.07 261.65C875.13 261.65 862.09 275.17 862.09 298.36C862.09 321.54 873.2 332.17 889.14 332.17C904.11 332.17 917.15 320.09 917.15 295.46C917.15 271.79 907.01 261.65 891.07 261.65Z" fill="white"/>
<path d="M1134.07 403.66C1060.16 403.66 1020.56 374.2 1020.56 308.02C1020.56 239.91 1062.09 187.26 1146.14 187.26C1221.97 187.26 1254.82 223.97 1254.82 290.63C1254.82 363.57 1207 403.66 1134.07 403.66ZM1142.76 261.65C1126.82 261.65 1113.77 275.17 1113.77 298.36C1113.77 321.54 1124.88 332.17 1140.82 332.17C1155.79 332.17 1168.84 320.09 1168.84 295.46C1168.84 271.79 1158.7 261.65 1142.76 261.65Z" fill="white"/>
<path d="M150.02 388.63C141.62 350.03 202.55 296.78 199.54 282.93C196.44 268.66 156.85 285.8 151.83 262.73C147.27 241.75 171.41 224.6 202.4 217.27C252.13 205.51 289.91 207.46 297.4 241.87C305.25 277.96 252.44 307.9 256.55 326.78C260.2 343.56 309.2 312.1 318.7 355.74C325.55 387.21 285.88 412.79 246.53 422.13C200.56 433.04 158.42 427.23 150.02 388.63Z" fill="#008E97"/>
<path d="M174.37 117.53C181 129.29 186.02 141.64 187.41 155.27C189.64 176.98 180.18 193.62 159.89 203.92C140.62 213.7 120.99 211.16 105.22 196.72C86.43 179.52 77.35 157.68 75.28 132.59C73.8 114.64 74.67 96.8 81.93 79.63C83.79 75.23 86.36 70.9 89.42 67.17C96.04 59.12 104.81 56.61 114.75 58.92C128.25 62.06 138.32 70.36 147.52 79.76C158.48 90.95 167.13 103.76 174.37 117.53Z" fill="#008E97"/>
<path d="M223.37 109.21C228.92 88.99 235.52 69.4 248.87 52.74C252.9 47.71 257.86 43.1 263.25 39.4C274.29 31.81 286.24 33.11 296.48 42.14C305.85 50.41 311.68 60.82 316.13 71.89C323.43 90.04 327.34 108.8 325.46 128.05C323.85 144.53 318.56 159.96 307.45 172.86C296.83 185.19 282.85 190.54 265.84 188.23C235.46 184.1 221.58 164.69 221.07 137.76C220.9 128.25 222.56 118.73 223.37 109.21Z" fill="#008E97"/>
<path d="M416.67 293.21C408.8 305.3 397.27 314.54 381.31 319.1C365.36 323.66 348.2 318.55 334.59 305.39C320.72 291.98 316.74 277.04 322.8 262.75C328.98 248.16 341.13 238.54 354.08 229.6C363.88 222.83 374.75 217.46 387.47 214.89C394.61 213.45 401.99 213.08 409.86 215.6C416.66 217.78 421.5 222.04 424.61 227.97C429.59 237.44 429.88 246.75 429.08 255.9C427.89 269.32 423.62 281.49 416.67 293.21Z" fill="#008E97"/>
<path d="M44.84 331.26C35.53 323.74 25.69 312.05 20.7 296.17C19.66 292.85 19.1 289.2 18.87 285.56C18.23 275.48 23.23 267.42 32.72 262.82C41.99 258.32 51.24 257.57 60.4 258.08C77.25 259.02 92.87 263.2 106.83 271.22C116.15 276.58 123.45 284.05 125.08 296.24C128.15 319.18 107.54 343.99 85.02 344.6C70.84 345 58.29 341.48 44.84 331.26Z" fill="#008E97"/>
<path d="M1399.8 212L1399.4 309.6C1399.4 317.333 1401.13 323.2 1404.6 327.2C1408.07 331.2 1412.47 333.2 1417.8 333.2C1423.4 333.2 1428.6 331.2 1433.4 327.2C1438.47 322.933 1442.07 317.2 1444.2 310V285.6C1444.2 250.4 1445 226.4 1446.6 213.6C1447.4 209.067 1449.67 205.067 1453.4 201.6C1457.13 198.133 1463.67 196.133 1473 195.6C1482.6 194.8 1492.07 194.4 1501.4 194.4C1510.73 194.4 1526.6 194.933 1549 196C1555.4 196.267 1560.47 198.133 1564.2 201.6C1567.93 205.067 1570.07 209.067 1570.6 213.6C1572.47 230.933 1573.4 257.6 1573.4 293.6C1573.4 329.333 1572.87 353.733 1571.8 366.8C1570.73 379.867 1568.73 388.4 1565.8 392.4C1562.87 396.4 1556.87 398.4 1547.8 398.4H1469.8C1460.73 398.4 1454.6 396.4 1451.4 392.4C1448.47 388.4 1446.6 381.6 1445.8 372V371.6C1418.33 392.667 1390.47 403.2 1362.2 403.2C1333.93 403.2 1312.47 396.267 1297.8 382.4C1283.4 368.267 1275.93 348.4 1275.4 322.8C1275.13 297.2 1275 274.4 1275 254.4C1275 234.4 1275.13 220.933 1275.4 214C1275.67 207.067 1277.4 202.133 1280.6 199.2C1284.07 196 1290.6 194.4 1300.2 194.4L1377 193.6C1385.53 193.6 1391.4 195.2 1394.6 198.4C1398.07 201.333 1399.8 205.867 1399.8 212Z" fill="white"/>
</svg>
